<svg width="600" height="600" viewBox="0 0 600 600" fill="none" xmlns="http://www.w3.org/2000/svg">
<path d="M492.504 457.984H478.728C450.228 457.952 422.904 446.617 402.752 426.464C382.599 406.312 371.264 378.988 371.232 350.488V250.24C371.231 247.268 372.045 244.352 373.585 241.809C375.125 239.267 377.332 237.195 379.967 235.82C382.602 234.444 385.564 233.817 388.53 234.007C391.496 234.197 394.354 235.196 396.792 236.896L434.904 263.476C467.494 250.644 503.738 250.644 536.328 263.476L574.44 236.896C576.878 235.196 579.736 234.197 582.702 234.007C585.669 233.817 588.63 234.444 591.265 235.82C593.9 237.195 596.107 239.267 597.647 241.809C599.188 244.352 600.001 247.268 600 250.24V350.488C599.968 378.988 588.633 406.312 568.48 426.464C548.328 446.617 521.004 457.952 492.504 457.984V457.984ZM388.8 252.616V350.488C388.825 374.35 398.316 397.227 415.188 414.1C432.061 430.972 454.938 440.463 478.8 440.488H492.576C516.437 440.459 539.312 430.968 556.184 414.096C573.056 397.224 582.547 374.349 582.576 350.488V252.616L543.12 280.12C541.653 281.146 539.906 281.694 538.116 281.692H536.28C535.074 281.696 533.88 281.447 532.776 280.96C517.86 274.625 501.821 271.36 485.616 271.36C469.411 271.36 453.372 274.625 438.456 280.96C437.352 281.448 436.158 281.697 434.952 281.692H433.2C431.41 281.694 429.663 281.146 428.196 280.12L388.8 252.616Z" fill="white"/>
<path d="M436.596 333.088C445.608 333.148 452.868 341.332 452.796 351.364C452.724 361.396 445.368 369.496 436.356 369.436C427.344 369.376 420.096 361.192 420.156 351.148C420.216 341.104 427.584 333.028 436.596 333.088Z" fill="white"/>
<path d="M533.4 333.088C542.412 333.148 549.66 341.332 549.6 351.364C549.54 361.396 542.172 369.496 533.16 369.436C524.148 369.376 516.888 361.192 516.96 351.148C517.032 341.104 524.4 333.028 533.4 333.088Z" fill="white"/>
<path d="M504 377.452C504.396 372.652 496.728 369.472 488.4 369.472H483.288C474.888 369.472 467.268 372.604 467.688 377.452C467.66 377.853 467.68 378.256 467.748 378.652C468.696 383.668 474.264 388.312 480.864 390.652C484.114 391.724 487.622 391.724 490.872 390.652C497.472 388.252 503.028 383.644 503.988 378.652C504.04 378.254 504.044 377.851 504 377.452V377.452Z" fill="white"/>
<path d="M190.644 190H123.732C90.929 190.035 59.4794 203.081 36.2831 226.275C13.0868 249.469 0.0381241 280.917 7.09893e-06 313.72V320.128C-0.00592678 331.281 3.70833 342.118 10.5548 350.923C17.4013 359.728 26.9889 365.998 37.8 368.74L58.524 373.972C57.7483 367.909 57.4394 361.795 57.6 355.684L42.108 351.772C35.0728 349.985 28.8346 345.903 24.381 340.172C19.9274 334.44 17.513 327.387 17.52 320.128V313.72C17.5518 285.557 28.7534 258.557 48.6674 238.643C68.5814 218.729 95.5814 207.528 123.744 207.496H190.656C218.82 207.528 245.821 218.729 265.737 238.643C285.653 258.556 296.857 285.556 296.892 313.72V320.128C296.895 327.385 294.479 334.437 290.026 340.168C285.573 345.898 279.337 349.982 272.304 351.772L264.336 353.788C263.65 360.129 262.589 366.425 261.156 372.64L276.6 368.728C287.41 365.988 296.997 359.721 303.844 350.918C310.691 342.115 314.405 331.28 314.4 320.128V313.72C314.362 280.913 301.31 249.461 278.108 226.266C254.907 203.071 223.451 190.029 190.644 190Z" fill="white"/>
<path d="M160.356 457.984H154.992C126.492 457.952 99.1685 446.617 79.016 426.464C58.8634 406.312 47.5278 378.988 47.496 350.488V278.392C47.496 276.072 48.4177 273.847 50.0583 272.206C51.6988 270.566 53.9239 269.644 56.244 269.644C58.5641 269.644 60.7892 270.566 62.4298 272.206C64.0704 273.847 64.992 276.072 64.992 278.392V350.548C65.0206 374.409 74.5119 397.284 91.384 414.156C108.256 431.028 131.131 440.519 154.992 440.548H160.356C184.218 440.523 207.095 431.032 223.968 414.16C240.84 397.287 250.331 374.41 250.356 350.548V278.392C250.312 277.215 250.507 276.042 250.927 274.941C251.347 273.841 251.985 272.837 252.802 271.989C253.619 271.141 254.599 270.467 255.683 270.006C256.767 269.545 257.932 269.308 259.11 269.308C260.288 269.308 261.453 269.545 262.537 270.006C263.621 270.467 264.601 271.141 265.418 271.989C266.235 272.837 266.873 273.841 267.293 274.941C267.713 276.042 267.908 277.215 267.864 278.392V350.548C267.816 379.04 256.472 406.35 236.319 426.49C216.165 446.629 188.848 457.955 160.356 457.984V457.984Z" fill="white"/>
<path d="M110.28 302.08C119.4 303.796 125.244 313.432 123.324 323.584C121.404 333.736 112.452 340.588 103.332 338.86C94.2121 337.132 88.3681 327.508 90.2881 317.356C92.2081 307.204 101.148 300.352 110.28 302.08Z" fill="white"/>
<path d="M205.08 302.08C195.96 303.796 190.116 313.432 192.036 323.584C193.956 333.736 202.908 340.588 212.028 338.86C221.148 337.132 226.992 327.508 225.072 317.356C223.152 307.204 214.2 300.352 205.08 302.08Z" fill="white"/>
<path d="M157.2 370.672C171.444 370.672 182.988 374.608 182.988 382.48C182.988 392.968 171.444 403.456 157.2 403.456C142.956 403.456 131.412 392.968 131.412 382.48C131.4 374.608 142.944 370.672 157.2 370.672Z" fill="white"/>
</svg>
