<svg xmlns="http://www.w3.org/2000/svg" viewBox="0 0 600 600"><defs><style>.cls-1{fill:#fff;}.cls-2{fill:#231f20;}</style></defs><g id="bg-white"><rect class="cls-1" width="600" height="600"/></g><g id="icons"><path class="cls-2" d="M460.42,411.66H448.94a89.68,89.68,0,0,1-89.58-89.58V238.54a13.55,13.55,0,0,1,21.3-11.12l31.76,22.15a115.35,115.35,0,0,1,84.52,0l31.76-22.15A13.55,13.55,0,0,1,550,238.54v83.54A89.68,89.68,0,0,1,460.42,411.66ZM374,240.52v81.56a75.08,75.08,0,0,0,75,75h11.48a75.09,75.09,0,0,0,75-75V240.52l-32.88,22.92a7.26,7.26,0,0,1-4.17,1.31H496.9a7.18,7.18,0,0,1-2.92-.61,100.53,100.53,0,0,0-78.6,0,7.15,7.15,0,0,1-2.92.61H411a7.26,7.26,0,0,1-4.17-1.31Z" transform="translate(0)"/><path class="cls-2" d="M413.83,307.58c7.51.05,13.56,6.87,13.5,15.23s-6.19,15.11-13.7,15.06-13.55-6.87-13.5-15.24S406.32,307.53,413.83,307.58Z" transform="translate(0)"/><path class="cls-2" d="M494.5,307.58c7.51.05,13.55,6.87,13.5,15.23s-6.19,15.11-13.7,15.06-13.56-6.87-13.5-15.24S487,307.53,494.5,307.58Z" transform="translate(0)"/><path class="cls-2" d="M470,344.55c.33-4-6.06-6.65-13-6.65h-4.26c-7,0-13.35,2.61-13,6.65a4.22,4.22,0,0,0,.05,1c.79,4.18,5.43,8.05,10.93,10a13.31,13.31,0,0,0,8.34,0c5.5-2,10.13-5.84,10.93-10A4.22,4.22,0,0,0,470,344.55Z" transform="translate(0)"/><path class="cls-2" d="M208.87,188.34H153.11A103.22,103.22,0,0,0,50,291.44v5.34a41.77,41.77,0,0,0,31.5,40.51l17.27,4.36A99.49,99.49,0,0,1,98,326.41l-12.91-3.26a27.18,27.18,0,0,1-20.49-26.37v-5.34a88.62,88.62,0,0,1,88.52-88.52h55.76a88.63,88.63,0,0,1,88.53,88.52v5.34a27.2,27.2,0,0,1-20.49,26.37l-6.64,1.68a134.14,134.14,0,0,1-2.65,15.71l12.87-3.26A41.76,41.76,0,0,0,312,296.78v-5.34A103.22,103.22,0,0,0,208.87,188.34Z" transform="translate(0)"/><path class="cls-2" d="M183.63,411.66h-4.47a89.68,89.68,0,0,1-89.58-89.58V262a7.29,7.29,0,1,1,14.58,0v60.13a75.09,75.09,0,0,0,75,75h4.47a75.08,75.08,0,0,0,75-75V262a7.3,7.3,0,1,1,14.59,0v60.13A89.68,89.68,0,0,1,183.63,411.66Z" transform="translate(0)"/><path class="cls-2" d="M141.9,281.74c7.6,1.43,12.47,9.46,10.87,17.92s-9.06,14.17-16.66,12.73-12.47-9.46-10.87-17.92S134.29,280.3,141.9,281.74Z" transform="translate(0)"/><path class="cls-2" d="M220.9,281.74c-7.6,1.43-12.47,9.46-10.87,17.92s9.06,14.17,16.66,12.73,12.47-9.46,10.87-17.92S228.5,280.3,220.9,281.74Z" transform="translate(0)"/><path class="cls-2" d="M181,338.9c11.87,0,21.49,3.28,21.49,9.84,0,8.74-9.62,17.48-21.49,17.48s-21.49-8.74-21.49-17.48C159.5,342.18,169.12,338.9,181,338.9Z" transform="translate(0)"/></g></svg>