<svg width="600" height="600" viewBox="0 0 600 600" fill="none" xmlns="http://www.w3.org/2000/svg">
<path d="M313.616 525H285.942C228.69 524.936 173.802 502.165 133.318 461.682C92.8353 421.198 70.0638 366.31 70 309.058V107.676C69.9977 101.705 71.6323 95.8476 74.7259 90.7404C77.8196 85.6333 82.2541 81.4718 87.5472 78.7085C92.8404 75.9451 98.7897 74.6855 104.749 75.0666C110.707 75.4477 116.448 77.455 121.346 80.8702L197.907 134.265C263.375 108.487 336.182 108.487 401.651 134.265L478.212 80.8702C483.11 77.455 488.85 75.4477 494.809 75.0666C500.768 74.6855 506.717 75.9451 512.011 78.7085C517.304 81.4718 521.738 85.6333 524.832 90.7404C527.926 95.8476 529.56 101.705 529.558 107.676V309.058C529.494 366.31 506.722 421.198 466.239 461.682C425.756 502.165 370.868 524.936 313.616 525V525ZM105.291 112.449V309.058C105.342 356.992 124.407 402.949 158.301 436.843C192.196 470.738 238.152 489.802 286.087 489.853H313.76C361.693 489.796 407.645 470.73 441.539 436.836C475.432 402.943 494.498 356.99 494.556 309.058V112.449L415.295 167.7C412.348 169.76 408.838 170.863 405.243 170.858H401.555C399.131 170.866 396.733 170.365 394.516 169.388C364.553 156.661 332.333 150.103 299.779 150.103C267.225 150.103 235.005 156.661 205.042 169.388C202.825 170.367 200.427 170.868 198.003 170.858H194.484C190.888 170.863 187.378 169.76 184.431 167.7L105.291 112.449Z" fill="white"/>
<path d="M201.306 274.104C219.409 274.225 233.993 290.665 233.849 310.818C233.704 330.97 218.927 347.242 200.824 347.121C182.72 347.001 168.16 330.561 168.28 310.384C168.401 290.207 183.202 273.984 201.306 274.104Z" fill="white"/>
<path d="M395.769 274.104C413.873 274.225 428.433 290.665 428.312 310.818C428.192 330.97 413.391 347.242 395.287 347.121C377.183 347.001 362.599 330.561 362.744 310.384C362.889 290.207 377.69 273.984 395.769 274.104Z" fill="white"/>
<path d="M336.709 363.224C337.505 353.582 322.101 347.194 305.372 347.194H295.102C278.228 347.194 262.921 353.485 263.764 363.224C263.709 364.03 263.749 364.839 263.885 365.635C265.789 375.711 276.975 385.04 290.233 389.741C296.761 391.895 303.809 391.895 310.337 389.741C323.596 384.92 334.757 375.663 336.685 365.635C336.789 364.835 336.797 364.026 336.709 363.224V363.224Z" fill="white"/>
</svg>
