<svg width="600" height="600" viewBox="0 0 600 600" fill="none" xmlns="http://www.w3.org/2000/svg">
<path d="M356.13 75H243.771C188.688 75.0587 135.878 96.9649 96.9268 135.913C57.9753 174.86 36.064 227.668 36 282.751V293.512C35.99 312.241 42.227 330.438 53.7237 345.223C65.2204 360.008 81.32 370.536 99.474 375.141L134.274 383.927C132.971 373.745 132.452 363.478 132.722 353.217L106.708 346.648C94.8944 343.648 84.4192 336.793 76.9407 327.169C69.4622 317.544 65.4079 305.7 65.4197 293.512V282.751C65.473 235.46 84.2828 190.122 117.722 156.682C151.162 123.243 196.501 104.433 243.792 104.379H356.15C403.443 104.433 448.784 123.242 482.227 156.681C515.67 190.12 534.484 235.459 534.543 282.751V293.512C534.547 305.698 530.49 317.539 523.013 327.162C515.536 336.785 505.064 343.642 493.254 346.648L479.874 350.034C478.723 360.682 476.94 371.253 474.534 381.69L500.468 375.121C518.62 370.52 534.719 359.996 546.216 345.214C557.713 330.432 563.951 312.238 563.942 293.512V282.751C563.878 227.661 541.961 174.847 503.001 135.898C464.041 96.9495 411.22 75.048 356.13 75Z" fill="white"/>
<path d="M305.271 525H296.263C248.406 524.947 202.524 505.912 168.684 472.072C134.844 438.231 115.809 392.349 115.756 344.492V223.428C115.756 219.532 117.303 215.796 120.058 213.041C122.813 210.286 126.549 208.739 130.445 208.739C134.341 208.739 138.078 210.286 140.832 213.041C143.587 215.796 145.135 219.532 145.135 223.428V344.593C145.183 384.66 161.121 423.072 189.452 451.404C217.784 479.736 256.196 495.673 296.263 495.721H305.271C345.339 495.679 383.755 479.743 412.087 451.41C440.42 423.077 456.356 384.662 456.399 344.593V223.428C456.326 221.452 456.652 219.481 457.358 217.634C458.063 215.787 459.134 214.101 460.507 212.677C461.879 211.253 463.524 210.12 465.344 209.346C467.164 208.573 469.121 208.174 471.099 208.174C473.076 208.174 475.034 208.573 476.854 209.346C478.673 210.12 480.319 211.253 481.691 212.677C483.063 214.101 484.134 215.787 484.84 217.634C485.546 219.481 485.872 221.452 485.799 223.428V344.593C485.719 392.436 466.669 438.295 432.827 472.114C398.986 505.933 353.114 524.952 305.271 525V525Z" fill="white"/>
<path d="M221.183 263.205C236.497 266.087 246.31 282.267 243.086 299.315C239.862 316.362 224.83 327.868 209.516 324.966C194.201 322.065 184.388 305.904 187.612 288.857C190.836 271.809 205.848 260.303 221.183 263.205Z" fill="white"/>
<path d="M380.371 263.205C365.057 266.087 355.244 282.267 358.468 299.315C361.692 316.362 376.724 327.868 392.038 324.966C407.353 322.065 417.166 305.904 413.942 288.857C410.718 271.809 395.686 260.303 380.371 263.205Z" fill="white"/>
<path d="M299.971 378.385C323.89 378.385 343.274 384.995 343.274 398.213C343.274 415.825 323.89 433.436 299.971 433.436C276.052 433.436 256.668 415.825 256.668 398.213C256.647 384.995 276.032 378.385 299.971 378.385Z" fill="white"/>
</svg>
